<svg class="" width="40" height="40" viewBox="0 0 40 40" fill="none" xmlns="http://www.w3.org/2000/svg"><title>Twitter</title><path d="M32.7239 13.5843C32.7435 13.8647 32.7435 14.1452 32.7435 14.4282C32.7435 23.0512 26.1393 32.9961 14.0635 32.9961V32.991C10.4962 32.9962 7.00305 31.9805 4 30.0654C4.51871 30.1274 5.04002 30.1584 5.56262 30.1597C8.51887 30.1623 11.3906 29.1763 13.7164 27.3608C10.907 27.3078 8.44347 25.487 7.58286 22.8289C8.56697 23.0176 9.58099 22.9788 10.5469 22.7165C7.48405 22.1014 5.28052 19.4265 5.28052 16.32C5.28052 16.2915 5.28052 16.2644 5.28052 16.2373C6.19313 16.7425 7.21495 17.0229 8.26017 17.054C5.37542 15.1376 4.48621 11.3229 6.22823 8.34048C9.56149 12.4175 14.4795 14.8959 19.7588 15.1583C19.2297 12.8917 19.9525 10.5166 21.6582 8.92327C24.3024 6.45254 28.4612 6.57918 30.9468 9.20627C32.4171 8.91811 33.8264 8.38183 35.116 7.622C34.6259 9.13262 33.6002 10.4158 32.2299 11.2312C33.5313 11.0787 34.8027 10.7324 36 10.2039C35.1186 11.5168 34.0084 12.6604 32.7239 13.5843Z" fill="#0d2f3f"></path></svg>